# xmcd CD database file
#
# Track frame offsets:
#	150
#	13665
#	27915
#	41570
#	56668
#	73693
#	86918
#	102608
#	113100
#	131810
#	145935
#	163845
#	179570
#
# Disc length: 2640 seconds
#
# Revision: 8
# Processed by: cddbd v1.5.2PL0 Copyright (c) Steve Scherf et al.
# Submitted via: CDex 1.79
#
DISCID=c20a4e0d
DTITLE=Keb' Mo' - Keb' Mo'
DYEAR=1994
DGENRE=Blues
TTITLE0=every morning
TTITLE1=tell everybody i know
TTITLE2=love blues
TTITLE3=victims of comfort
TTITLE4=angelina
TTITLE5=anybody seen my girl
TTITLE6=she just wants to dance
TTITLE7=am i wrong
TTITLE8=come on in my kitchen
TTITLE9=dirty low down and bad
TTITLE10=don't try to explain
TTITLE11=kindhearted woman blues
TTITLE12=city boy
EXTD=YEAR: 1994
EXTT0=
EXTT1=
EXTT2=
EXTT3=
EXTT4=
EXTT5=
EXTT6=
EXTT7=
EXTT8=
EXTT9=
EXTT10=
EXTT11=
EXTT12=
PLAYORDER=
